<?xml version="1.0" encoding="UTF-8" standalone="no"?>
<svg width="29px" height="29px" viewBox="0 0 29 29" version="1.1" xmlns="http://www.w3.org/2000/svg" xmlns:xlink="http://www.w3.org/1999/xlink" xmlns:sketch="http://www.bohemiancoding.com/sketch/ns">
    <!-- Generator: Sketch 3.1.1 (8761) - http://www.bohemiancoding.com/sketch -->
    <title>code</title>
    <desc>Created with Sketch.</desc>
    <defs></defs>
    <g id="Page-1" stroke="none" stroke-width="1" fill="none" fill-rule="evenodd" sketch:type="MSPage">
        <g id="code" sketch:type="MSLayerGroup">
            <g id="Page-1" sketch:type="MSShapeGroup">
                <g id="ui_code">
                    <circle id="Oval-1" fill="#27AE60" cx="14.5" cy="14.5" r="14.5"></circle>
                    <path d="M21.8571429,8 L8.14285714,8 C7.51257143,8 7,8.546 7,9.2173913 L7,20.7826087 C7,21.454 7.51257143,22 8.14285714,22 L21.8571429,22 C22.4874286,22 23,21.454 23,20.7826087 L23,9.2173913 C23,8.546 22.4874286,8 21.8571429,8 L21.8571429,8 L21.8571429,8 Z M8.14285714,8.60869565 L21.8571429,8.60869565 C22.1725714,8.60869565 22.4285714,8.88169565 22.4285714,9.2173913 L22.4285714,11.0434783 L7.57142857,11.0434783 L7.57142857,9.2173913 C7.57142857,8.88169565 7.82771429,8.60869565 8.14285714,8.60869565 L8.14285714,8.60869565 L8.14285714,8.60869565 Z M21.8571429,21.3913043 L8.14285714,21.3913043 C7.82771429,21.3913043 7.57142857,21.1186087 7.57142857,20.7826087 L7.57142857,11.6521739 L22.4285714,11.6521739 L22.4285714,20.7826087 C22.4285714,21.1186087 22.1725714,21.3913043 21.8571429,21.3913043 L21.8571429,21.3913043 L21.8571429,21.3913043 Z M20.7142857,9.2173913 C21.0297143,9.2173913 21.2857143,9.49008696 21.2857143,9.82608696 C21.2857143,10.162087 21.0297143,10.4347826 20.7142857,10.4347826 C20.3988571,10.4347826 20.1428571,10.162087 20.1428571,9.82608696 C20.1428571,9.49008696 20.3988571,9.2173913 20.7142857,9.2173913 L20.7142857,9.2173913 L20.7142857,9.2173913 Z M19,9.2173913 C19.3154286,9.2173913 19.5714286,9.49008696 19.5714286,9.82608696 C19.5714286,10.162087 19.3154286,10.4347826 19,10.4347826 C18.6845714,10.4347826 18.4285714,10.162087 18.4285714,9.82608696 C18.4285714,9.49008696 18.6845714,9.2173913 19,9.2173913 L19,9.2173913 L19,9.2173913 Z M17.2857143,9.2173913 C17.6011429,9.2173913 17.8571429,9.49008696 17.8571429,9.82608696 C17.8571429,10.162087 17.6011429,10.4347826 17.2857143,10.4347826 C16.9702857,10.4347826 16.7142857,10.162087 16.7142857,9.82608696 C16.7142857,9.49008696 16.9702857,9.2173913 17.2857143,9.2173913 L17.2857143,9.2173913 L17.2857143,9.2173913 Z M13,18.3478261 C12.9354286,18.3478261 12.8705714,18.3246957 12.8171429,18.2778261 L11.1028571,16.756087 C11.0377143,16.6976522 11,16.6121304 11,16.5217391 C11,16.4313478 11.0377143,16.3458261 11.1028571,16.2873913 L12.8171429,14.7656522 C12.9382857,14.6582174 13.1182857,14.6755652 13.2194286,14.8046087 C13.3205714,14.9339565 13.304,15.126 13.1828571,15.2334348 L11.732,16.5217391 L13.1828571,17.8091304 C13.304,17.9168696 13.3202857,18.1086087 13.2194286,18.2382609 C13.1628571,18.3106957 13.0817143,18.3478261 13,18.3478261 L13,18.3478261 L13,18.3478261 Z M17,18.3478261 C16.918,18.3478261 16.8371429,18.3106957 16.78,18.2385652 C16.6788571,18.1092174 16.6957143,17.9171739 16.8168571,17.8100435 L18.268,16.5217391 L16.8171429,15.2343478 C16.696,15.1266087 16.68,14.9348696 16.7808571,14.8052174 C16.8817143,14.6761739 17.0617143,14.6591304 17.1831429,14.7662609 L18.8974286,16.288 C18.9622857,16.3458261 19,16.4313478 19,16.5217391 C19,16.6121304 18.9622857,16.6976522 18.8974286,16.756087 L17.1831429,18.2778261 C17.1294286,18.3246957 17.0648571,18.3478261 17,18.3478261 L17,18.3478261 L17,18.3478261 Z M14.1428571,19.5652174 C14.1131429,19.5652174 14.0825714,19.5597391 14.0525714,19.5493913 C13.9028571,19.4961304 13.822,19.3241739 13.872,19.1643913 L15.5862857,13.6861304 C15.6362857,13.5269565 15.7974286,13.439913 15.9477143,13.4937826 C16.0974286,13.5467391 16.1785714,13.719 16.1285714,13.8787826 L14.4142857,19.3570435 C14.374,19.4842609 14.2625714,19.5652174 14.1428571,19.5652174 L14.1428571,19.5652174 L14.1428571,19.5652174 Z" id="ui_x5F_code" fill="#FFFFFF"></path>
                </g>
            </g>
        </g>
    </g>
</svg>