<?xml version="1.0" encoding="UTF-8" standalone="no"?>
<svg width="31px" height="31px" viewBox="0 0 31 31" version="1.1" xmlns="http://www.w3.org/2000/svg" xmlns:xlink="http://www.w3.org/1999/xlink" xmlns:sketch="http://www.bohemiancoding.com/sketch/ns">
    <!-- Generator: Sketch 3.1.1 (8761) - http://www.bohemiancoding.com/sketch -->
    <title>code</title>
    <desc>Created with Sketch.</desc>
    <defs></defs>
    <g id="Page-1" stroke="none" stroke-width="1" fill="none" fill-rule="evenodd" sketch:type="MSPage">
        <g id="code" sketch:type="MSLayerGroup" transform="translate(1.500000, 1.500000)">
            <g id="Page-1" transform="translate(5.000000, 6.000000)" fill="#333333" sketch:type="MSShapeGroup">
                <g id="code">
                    <g id="Page-1">
                        <g id="code">
                            <g id="Page-1">
                                <g id="ui_code">
                                    <path d="M16.7142857,0 L1.28571429,0 C0.576642859,0 0,0.624 0,1.39130435 L0,14.6086956 C0,15.376 0.576642859,16 1.28571429,16 L16.7142857,16 C17.4233572,16 18,15.376 18,14.6086956 L18,1.39130435 C18,0.624 17.4233572,0 16.7142857,0 L16.7142857,0 L16.7142857,0 Z M1.28571429,0.695652172 L16.7142857,0.695652172 C17.0691428,0.695652172 17.3571428,1.00765217 17.3571428,1.39130435 L17.3571428,3.47826092 L0.642857142,3.47826092 L0.642857142,1.39130435 C0.642857142,1.00765217 0.931178574,0.695652172 1.28571429,0.695652172 L1.28571429,0.695652172 L1.28571429,0.695652172 Z M16.7142857,15.3043477 L1.28571429,15.3043477 C0.931178574,15.3043477 0.642857142,14.9926956 0.642857142,14.6086956 L0.642857142,4.17391303 L17.3571428,4.17391303 L17.3571428,14.6086956 C17.3571428,14.9926956 17.0691428,15.3043477 16.7142857,15.3043477 L16.7142857,15.3043477 L16.7142857,15.3043477 Z M15.4285714,1.39130435 C15.7834286,1.39130435 16.0714286,1.70295652 16.0714286,2.08695652 C16.0714286,2.47095657 15.7834286,2.78260868 15.4285714,2.78260868 C15.0737143,2.78260868 14.7857143,2.47095657 14.7857143,2.08695652 C14.7857143,1.70295652 15.0737143,1.39130435 15.4285714,1.39130435 L15.4285714,1.39130435 L15.4285714,1.39130435 Z M13.5,1.39130435 C13.8548571,1.39130435 14.1428572,1.70295652 14.1428572,2.08695652 C14.1428572,2.47095657 13.8548571,2.78260868 13.5,2.78260868 C13.1451428,2.78260868 12.8571428,2.47095657 12.8571428,2.08695652 C12.8571428,1.70295652 13.1451428,1.39130435 13.5,1.39130435 L13.5,1.39130435 L13.5,1.39130435 Z M11.5714286,1.39130435 C11.9262857,1.39130435 12.2142857,1.70295652 12.2142857,2.08695652 C12.2142857,2.47095657 11.9262857,2.78260868 11.5714286,2.78260868 C11.2165714,2.78260868 10.9285714,2.47095657 10.9285714,2.08695652 C10.9285714,1.70295652 11.2165714,1.39130435 11.5714286,1.39130435 L11.5714286,1.39130435 L11.5714286,1.39130435 Z M6.75,11.8260869 C6.67735718,11.8260869 6.60439282,11.7996523 6.54428577,11.7460869 L4.61571423,10.0069565 C4.54242858,9.94017396 4.5,9.84243476 4.5,9.7391304 C4.5,9.63582604 4.54242858,9.53808693 4.61571423,9.47130436 L6.54428577,7.73217395 C6.68057142,7.60939132 6.88307141,7.62921737 6.99685717,7.77669565 C7.11064282,7.92452172 7.092,8.144 6.95571423,8.26678263 L5.3235,9.7391304 L6.95571423,11.2104348 C7.092,11.3335652 7.11032141,11.5526956 6.99685717,11.7008696 C6.93321424,11.7836523 6.84192859,11.8260869 6.75,11.8260869 L6.75,11.8260869 L6.75,11.8260869 Z M11.25,11.8260869 C11.15775,11.8260869 11.0667857,11.7836523 11.0025,11.7012173 C10.8887143,11.5533913 10.9076786,11.3339131 11.0439643,11.2114783 L12.6765,9.7391304 L11.0442857,8.26782605 C10.908,8.14469565 10.89,7.92556525 11.0034643,7.77739132 C11.1169286,7.62991303 11.3194286,7.61043475 11.4560357,7.7328696 L13.3846071,9.472 C13.4575714,9.53808693 13.5,9.63582604 13.5,9.7391304 C13.5,9.84243476 13.4575714,9.94017396 13.3846071,10.0069565 L11.4560357,11.7460869 C11.3956071,11.7996523 11.3229643,11.8260869 11.25,11.8260869 L11.25,11.8260869 L11.25,11.8260869 Z M8.03571424,13.2173913 C8.00228576,13.2173913 7.96789283,13.2111304 7.93414282,13.1993044 C7.76571423,13.1384348 7.67475,12.9419131 7.731,12.7593044 L9.65957139,6.49843475 C9.71582139,6.31652172 9.89710722,6.21704343 10.0661786,6.27860868 C10.2346072,6.3391304 10.3258928,6.536 10.2696428,6.71860868 L8.34107142,12.9794783 C8.29575,13.1248696 8.17039283,13.2173913 8.03571424,13.2173913 L8.03571424,13.2173913 L8.03571424,13.2173913 Z" id="ui_x5F_code"></path>
                                </g>
                            </g>
                        </g>
                    </g>
                </g>
            </g>
            <circle id="Oval-1" stroke="#333333" sketch:type="MSShapeGroup" cx="14" cy="14" r="14.5"></circle>
        </g>
    </g>
</svg>