<?xml version="1.0" encoding="UTF-8" standalone="no"?>
<svg width="20px" height="18px" viewBox="0 0 20 18" version="1.1" xmlns="http://www.w3.org/2000/svg" xmlns:xlink="http://www.w3.org/1999/xlink" xmlns:sketch="http://www.bohemiancoding.com/sketch/ns">
    <!-- Generator: Sketch 3.1.1 (8761) - http://www.bohemiancoding.com/sketch -->
    <title>code</title>
    <desc>Created with Sketch.</desc>
    <defs></defs>
    <g id="Page-1" stroke="none" stroke-width="1" fill="none" fill-rule="evenodd" sketch:type="MSPage">
        <g id="code" sketch:type="MSLayerGroup" fill="#FFFFFF">
            <g id="Page-1" sketch:type="MSShapeGroup">
                <g id="code">
                    <g id="Page-1">
                        <g id="ui_code">
                            <path d="M18.5714286,0 L1.42857143,0 C0.640714288,0 0,0.702 0,1.56521739 L0,16.4347826 C0,17.298 0.640714288,18 1.42857143,18 L18.5714286,18 C19.3592858,18 20,17.298 20,16.4347826 L20,1.56521739 C20,0.702 19.3592858,0 18.5714286,0 L18.5714286,0 L18.5714286,0 Z M1.42857143,0.782608693 L18.5714286,0.782608693 C18.9657142,0.782608693 19.2857142,1.13360869 19.2857142,1.56521739 L19.2857142,3.91304353 L0.714285713,3.91304353 L0.714285713,1.56521739 C0.714285713,1.13360869 1.03464286,0.782608693 1.42857143,0.782608693 L1.42857143,0.782608693 L1.42857143,0.782608693 Z M18.5714286,17.2173912 L1.42857143,17.2173912 C1.03464286,17.2173912 0.714285713,16.8667826 0.714285713,16.4347826 L0.714285713,4.69565216 L19.2857142,4.69565216 L19.2857142,16.4347826 C19.2857142,16.8667826 18.9657142,17.2173912 18.5714286,17.2173912 L18.5714286,17.2173912 L18.5714286,17.2173912 Z M17.1428571,1.56521739 C17.5371429,1.56521739 17.8571429,1.91582609 17.8571429,2.34782609 C17.8571429,2.77982614 17.5371429,3.13043477 17.1428571,3.13043477 C16.7485714,3.13043477 16.4285714,2.77982614 16.4285714,2.34782609 C16.4285714,1.91582609 16.7485714,1.56521739 17.1428571,1.56521739 L17.1428571,1.56521739 L17.1428571,1.56521739 Z M15,1.56521739 C15.3942857,1.56521739 15.7142858,1.91582609 15.7142858,2.34782609 C15.7142858,2.77982614 15.3942857,3.13043477 15,3.13043477 C14.6057142,3.13043477 14.2857142,2.77982614 14.2857142,2.34782609 C14.2857142,1.91582609 14.6057142,1.56521739 15,1.56521739 L15,1.56521739 L15,1.56521739 Z M12.8571429,1.56521739 C13.2514286,1.56521739 13.5714286,1.91582609 13.5714286,2.34782609 C13.5714286,2.77982614 13.2514286,3.13043477 12.8571429,3.13043477 C12.4628571,3.13043477 12.1428571,2.77982614 12.1428571,2.34782609 C12.1428571,1.91582609 12.4628571,1.56521739 12.8571429,1.56521739 L12.8571429,1.56521739 L12.8571429,1.56521739 Z M7.5,13.3043478 C7.41928575,13.3043478 7.33821425,13.2746088 7.27142863,13.2143478 L5.12857137,11.2578261 C5.04714287,11.1826957 5,11.0727391 5,10.9565217 C5,10.8403043 5.04714287,10.7303478 5.12857137,10.6552174 L7.27142863,8.69869569 C7.42285713,8.56056523 7.64785712,8.58286954 7.77428575,8.74878261 C7.90071425,8.91508693 7.88,9.162 7.72857137,9.30013046 L5.915,10.9565217 L7.72857137,12.6117391 C7.88,12.7502609 7.90035712,12.9967826 7.77428575,13.1634783 C7.70357138,13.2566088 7.60214288,13.3043478 7.5,13.3043478 L7.5,13.3043478 L7.5,13.3043478 Z M12.5,13.3043478 C12.3975,13.3043478 12.2964286,13.2566088 12.225,13.1638695 C12.0985714,12.9975652 12.1196429,12.7506522 12.2710714,12.6129131 L14.085,10.9565217 L12.2714286,9.30130431 C12.12,9.16278261 12.1,8.91626091 12.2260714,8.74956523 C12.3521429,8.58365216 12.5771429,8.56173909 12.7289286,8.6994783 L14.8717857,10.656 C14.9528571,10.7303478 15,10.8403043 15,10.9565217 C15,11.0727391 14.9528571,11.1826957 14.8717857,11.2578261 L12.7289286,13.2143478 C12.6617857,13.2746088 12.5810714,13.3043478 12.5,13.3043478 L12.5,13.3043478 L12.5,13.3043478 Z M8.92857138,14.8695652 C8.89142862,14.8695652 8.85321425,14.8625217 8.81571425,14.8492174 C8.62857137,14.7807391 8.5275,14.5596522 8.59,14.3542174 L10.7328571,7.31073909 C10.7953571,7.10608693 10.9967858,6.99417386 11.1846429,7.06343477 C11.3717858,7.1315217 11.4732142,7.353 11.4107142,7.55843477 L9.26785713,14.6019131 C9.2175,14.7654783 9.07821425,14.8695652 8.92857138,14.8695652 L8.92857138,14.8695652 L8.92857138,14.8695652 Z" id="ui_x5F_code"></path>
                        </g>
                    </g>
                </g>
            </g>
        </g>
    </g>
</svg>