<?xml version="1.0" encoding="UTF-8" standalone="no"?>
<svg width="50px" height="50px" viewBox="0 0 50 50" version="1.1" xmlns="http://www.w3.org/2000/svg" xmlns:xlink="http://www.w3.org/1999/xlink" xmlns:sketch="http://www.bohemiancoding.com/sketch/ns">
    <!-- Generator: Sketch 3.1.1 (8761) - http://www.bohemiancoding.com/sketch -->
    <title>info</title>
    <desc>Created with Sketch.</desc>
    <defs></defs>
    <g id="Page-1" stroke="none" stroke-width="1" fill="none" fill-rule="evenodd" sketch:type="MSPage">
        <g id="info" sketch:type="MSLayerGroup" fill="#000000">
            <path d="M25,0 C11.1928711,0 0,11.1928711 0,25 C0,38.8071289 11.1928711,50 25,50 C38.8071289,50 50,38.8071289 50,25 C50,11.1928711 38.8071289,0 25,0 L25,0 Z M25,45.3125 C13.7817383,45.3125 4.6875,36.2182617 4.6875,25 C4.6875,13.7817383 13.7817383,4.6875 25,4.6875 C36.2182617,4.6875 45.3125,13.7817383 45.3125,25 C45.3125,36.2182617 36.2182617,45.3125 25,45.3125 L25,45.3125 Z M21.875,12.5 L28.125,12.5 L28.125,18.75 L21.875,18.75 L21.875,12.5 Z M31.25,37.5 L18.75,37.5 L18.75,34.375 L21.875,34.375 L21.875,25 L18.75,25 L18.75,21.875 L28.125,21.875 L28.125,34.375 L31.25,34.375 L31.25,37.5 Z" id="Shape" sketch:type="MSShapeGroup"></path>
        </g>
    </g>
</svg>