<?xml version="1.0" encoding="UTF-8" standalone="no"?>
<svg width="50px" height="36px" viewBox="0 0 50 36" version="1.1" xmlns="http://www.w3.org/2000/svg" xmlns:xlink="http://www.w3.org/1999/xlink" xmlns:sketch="http://www.bohemiancoding.com/sketch/ns">
    <!-- Generator: Sketch 3.1.1 (8761) - http://www.bohemiancoding.com/sketch -->
    <title>gamepad2</title>
    <desc>Created with Sketch.</desc>
    <defs></defs>
    <g id="Page-1" stroke="none" stroke-width="1" fill="none" fill-rule="evenodd" sketch:type="MSPage">
        <g id="gamepad2" sketch:type="MSLayerGroup" fill="#000000">
            <path d="M46.4776367,7.53537558 C45.2087891,5.40796195 43.6951172,3.72263565 41.9791992,2.52622243 C40.0219727,1.16185813 37.8525391,0.47 35.5311523,0.47 C32.3516602,0.47 30.5671875,1.50247293 28.9926758,2.41341947 C27.709375,3.15581333 26.6958008,3.74228843 25.000293,3.74248897 C23.3043945,3.7423887 22.2907227,3.15581333 21.0074219,2.41341947 C19.4330078,1.5025732 17.6485352,0.470100269 14.4691406,0.470100269 C12.1476562,0.470100269 9.97822266,1.16185813 8.02119141,2.52622243 C6.30498047,3.72263565 4.79150391,5.40796195 3.52255859,7.53537558 C1.31679688,11.2333072 0,16.0844359 0,20.5122277 C0,24.7660523 0.223730469,27.7926809 0.704101562,30.0374096 C1.35576172,33.0819865 2.53857422,34.8049138 4.31904297,35.3038538 C4.71103516,35.41415 5.12373047,35.4698997 5.54580078,35.4698997 C8.61591797,35.4698997 11.9049805,32.5385269 15.0108398,29.5357623 C17.762793,26.874515 18.2501953,26.874515 19.8651367,26.874515 C19.9879883,26.874515 20.1154297,26.8751166 20.2484375,26.8759188 C20.3932617,26.8767209 20.5444336,26.8774228 20.702832,26.8774228 L25,26.9750851 L29.2970703,26.8774228 C29.4554688,26.8774228 29.606543,26.8767209 29.7513672,26.8759188 C29.8842773,26.8751166 30.0120117,26.874515 30.1347656,26.874515 C31.749707,26.874515 32.237207,26.874515 34.9892578,29.5357623 C38.0950195,32.5384266 41.3839844,35.4698997 44.4541016,35.47 L44.4542969,35.47 C44.8761719,35.47 45.2889648,35.4140497 45.6799805,35.3042549 C47.4615234,34.805014 48.6442383,33.0820867 49.2958008,30.0376102 C49.7761719,27.7926809 50,24.7660523 50,20.5122277 C50,16.0844359 48.6832031,11.2333072 46.4776367,7.53537558 L46.4776367,7.53537558 Z M46.2435547,29.3488604 C45.8964844,30.9705157 45.365332,32.0664591 44.8550781,32.2093428 C44.7323242,32.2438354 44.5974609,32.2613826 44.4541992,32.2613826 C42.3667969,32.2612823 38.8308594,28.842701 37.1318359,27.1999891 C35.4678711,25.5908675 34.4834961,24.8104716 33.4998047,24.3203552 C32.1860352,23.6658976 31.0962891,23.6658976 30.1348633,23.6658976 C30.006543,23.6658976 29.8728516,23.6664992 29.7348633,23.6673013 C29.5953125,23.6681035 29.449707,23.6688054 29.297168,23.6688054 L29.2625977,23.6688054 L29.2280273,23.6696075 L25,23.7656655 L20.7719727,23.6696075 L20.7374023,23.6688054 L20.702832,23.6688054 C20.5501953,23.6688054 20.4045898,23.6681035 20.2661133,23.6674016 C20.1269531,23.6664992 19.9935547,23.6658976 19.8651367,23.6658976 C18.9037109,23.6658976 17.8139648,23.6658976 16.5001953,24.3204555 C15.5166016,24.8104716 14.5322266,25.5908675 12.8685547,27.1996883 C11.1692383,28.8426007 7.63320312,32.261182 5.54580078,32.261182 C5.40244141,32.261182 5.26748047,32.2436349 5.14189453,32.2084404 C4.63427734,32.0661583 4.10332031,30.9703151 3.75625,29.3486598 C3.32558594,27.3362551 3.125,24.5283138 3.125,20.5122277 C3.125,18.6267639 3.40830078,16.586384 3.94443359,14.6115802 C4.47880859,12.6428929 5.25449219,10.7754776 6.1875,9.2111763 C7.22294922,7.47531427 8.43046875,6.11927233 9.77666016,5.180852 C11.20625,4.18417521 12.7849609,3.67881797 14.4691406,3.67881797 C16.8286133,3.67881797 18.0541016,4.38782215 19.4741211,5.20932848 C20.8853516,6.02572108 22.4848633,6.95100613 25.0006836,6.95120667 C27.5155273,6.95090586 29.1149414,6.02572108 30.5268555,5.20892741 C31.9458984,4.38792242 33.171582,3.67881797 35.5311523,3.67881797 C37.2151367,3.67881797 38.7939453,4.18427548 40.2235352,5.180852 C41.5699219,6.11957314 42.7774414,7.47561508 43.8126953,9.21127657 C44.7457031,10.7755778 45.5212891,12.6429932 46.0556641,14.6116805 C46.5916992,16.5864843 46.8750977,18.6268641 46.8750977,20.512328 C46.875,24.5279127 46.6743164,27.3359543 46.2435547,29.3488604 L46.2435547,29.3488604 Z M31.25,10.9511494 C31.25,12.7232198 32.6491102,14.1597668 34.375,14.1597668 C36.1008898,14.1597668 37.5,12.7232198 37.5,10.9511494 C37.5,9.80482077 36.9043784,8.74556947 35.9375,8.17240517 C34.9706216,7.59924087 33.7793784,7.59924087 32.8125,8.17240517 C31.8456216,8.74556947 31.25,9.80482077 31.25,10.9511494 L31.25,10.9511494 Z M37.5,17.3683842 C37.5,19.1404547 38.8991102,20.5770017 40.625,20.5770017 C42.3508898,20.5770017 43.75,19.1404547 43.75,17.3683842 C43.75,16.2220556 43.1543784,15.1628043 42.1875,14.58964 C41.2206216,14.0164757 40.0293784,14.0164757 39.0625,14.58964 C38.0956216,15.1628043 37.5,16.2220556 37.5,17.3683842 L37.5,17.3683842 Z M12.5,10.9511494 C14.2231445,10.9511494 15.625,12.3905151 15.625,14.1597668 C15.625,15.9290185 14.2231445,17.3683842 12.5,17.3683842 C10.7768555,17.3683842 9.375,15.9290185 9.375,14.1597668 C9.375,12.3905151 10.7768555,10.9511494 12.5,10.9511494 L12.5,10.9511494 Z M12.5,7.74253194 C9.05371094,7.74253194 6.25,10.6212634 6.25,14.1597668 C6.25,17.6982702 9.05371094,20.5770017 12.5,20.5770017 C15.9462891,20.5770017 18.75,17.6982702 18.75,14.1597668 C18.75,10.6212634 15.9462891,7.74253194 12.5,7.74253194 L12.5,7.74253194 L12.5,7.74253194 Z" id="Shape" sketch:type="MSShapeGroup"></path>
        </g>
    </g>
</svg>