<?xml version="1.0" encoding="UTF-8" standalone="no"?>
<svg width="50px" height="41px" viewBox="0 0 50 41" version="1.1" xmlns="http://www.w3.org/2000/svg" xmlns:xlink="http://www.w3.org/1999/xlink" xmlns:sketch="http://www.bohemiancoding.com/sketch/ns">
    <!-- Generator: Sketch 3.1.1 (8761) - http://www.bohemiancoding.com/sketch -->
    <title>briefcase2</title>
    <desc>Created with Sketch.</desc>
    <defs></defs>
    <g id="Page-1" stroke="none" stroke-width="1" fill="none" fill-rule="evenodd" sketch:type="MSPage">
        <g id="briefcase2" sketch:type="MSLayerGroup" fill="#000000">
            <path d="M45.3125,9.625 L34.375,9.625 L34.375,3.375 C34.375,1.65625 32.96875,0.25 31.25,0.25 L18.75,0.25 C17.0310547,0.25 15.625,1.65625 15.625,3.375 L15.625,9.625 L4.6875,9.625 C2.109375,9.625 0,11.734375 0,14.3125 L0,36.1875 C0,38.765625 2.109375,40.875 4.6875,40.875 L45.3125,40.875 C47.8904297,40.875 50,38.765625 50,36.1875 L50,14.3125 C50,11.734375 47.8907227,9.625 45.3125,9.625 L45.3125,9.625 Z M18.75,3.38056641 C18.7515625,3.37861328 18.7536133,3.3765625 18.7556641,3.375 L31.2446289,3.375 C31.2466797,3.37675781 31.2485352,3.37871094 31.250293,3.38056641 L31.250293,9.625 L18.75,9.625 L18.75,3.38056641 L18.75,3.38056641 Z" id="Shape" sketch:type="MSShapeGroup"></path>
        </g>
    </g>
</svg>