<?xml version="1.0" encoding="UTF-8" standalone="no"?>
<svg width="32px" height="33px" viewBox="0 0 32 33" version="1.1" xmlns="http://www.w3.org/2000/svg" xmlns:xlink="http://www.w3.org/1999/xlink" xmlns:sketch="http://www.bohemiancoding.com/sketch/ns">
    <!-- Generator: Sketch 3.1.1 (8761) - http://www.bohemiancoding.com/sketch -->
    <title>iphone</title>
    <desc>Created with Sketch.</desc>
    <defs></defs>
    <g id="Page-1" stroke="none" stroke-width="1" fill="none" fill-rule="evenodd" sketch:type="MSPage">
        <g id="iphone" sketch:type="MSLayerGroup" transform="translate(2.000000, 2.000000)" stroke="#333333">
            <g id="Page-1" sketch:type="MSShapeGroup">
                <g id="iphone">
                    <g id="Page-1">
                        <g id="iphone" transform="translate(-0.500000, 0.000000)">
                            <circle id="Oval-1" stroke-width="3" cx="14.5" cy="14.5" r="14.5"></circle>
                            <path d="M19.5,4 L10.5,4 C9.67275,4 9,4.64071429 9,5.42857143 L9,22.5714286 C9,23.3592857 9.67275,24 10.5,24 L19.5,24 C20.32725,24 21,23.3592857 21,22.5714286 L21,5.42857143 C21,4.64071429 20.32725,4 19.5,4 L19.5,4 L19.5,4 Z M9.75,7.57142857 L20.25,7.57142857 L20.25,20.4285714 L9.75,20.4285714 L9.75,7.57142857 L9.75,7.57142857 Z M10.5,4.71428571 L19.5,4.71428571 C19.914,4.71428571 20.25,5.03464286 20.25,5.42857143 L20.25,6.85714286 L9.75,6.85714286 L9.75,5.42857143 C9.75,5.03464286 10.086375,4.71428571 10.5,4.71428571 L10.5,4.71428571 L10.5,4.71428571 Z M19.5,23.2857143 L10.5,23.2857143 C10.086375,23.2857143 9.75,22.9657143 9.75,22.5714286 L9.75,21.1428571 L20.25,21.1428571 L20.25,22.5714286 C20.25,22.9657143 19.914,23.2857143 19.5,23.2857143 L19.5,23.2857143 L19.5,23.2857143 Z M16.875,6.14285714 L14.625,6.14285714 C14.418,6.14285714 14.25,5.98285714 14.25,5.78571429 C14.25,5.58857143 14.418,5.42857143 14.625,5.42857143 L16.875,5.42857143 C17.082,5.42857143 17.25,5.58857143 17.25,5.78571429 C17.25,5.98285714 17.082,6.14285714 16.875,6.14285714 L16.875,6.14285714 L16.875,6.14285714 Z M13.125,6.14285714 C13.0275,6.14285714 12.93,6.10357143 12.85875,6.03928571 C12.79125,5.97142857 12.75,5.87857143 12.75,5.78571429 C12.75,5.69285714 12.79125,5.6 12.85875,5.53214286 C12.9975,5.4 13.2525,5.4 13.39125,5.53214286 C13.45875,5.6 13.5,5.69285714 13.5,5.78571429 C13.5,5.87857143 13.45875,5.97142857 13.39125,6.03928571 C13.32,6.10357143 13.2225,6.14285714 13.125,6.14285714 L13.125,6.14285714 L13.125,6.14285714 Z M15.375,22.5714286 L14.625,22.5714286 C14.418,22.5714286 14.25,22.4114286 14.25,22.2142857 C14.25,22.0171429 14.418,21.8571429 14.625,21.8571429 L15.375,21.8571429 C15.582,21.8571429 15.75,22.0171429 15.75,22.2142857 C15.75,22.4114286 15.582,22.5714286 15.375,22.5714286 L15.375,22.5714286 L15.375,22.5714286 Z" id="Shape" fill="#333333"></path>
                        </g>
                    </g>
                </g>
            </g>
        </g>
    </g>
</svg>