<?xml version="1.0" encoding="UTF-8" standalone="no"?>
<svg width="29px" height="29px" viewBox="0 0 29 29" version="1.1" xmlns="http://www.w3.org/2000/svg" xmlns:xlink="http://www.w3.org/1999/xlink" xmlns:sketch="http://www.bohemiancoding.com/sketch/ns">
    <!-- Generator: Sketch 3.1.1 (8761) - http://www.bohemiancoding.com/sketch -->
    <title>iphone</title>
    <desc>Created with Sketch.</desc>
    <defs></defs>
    <g id="Page-1" stroke="none" stroke-width="1" fill="none" fill-rule="evenodd" sketch:type="MSPage">
        <g id="iphone" sketch:type="MSLayerGroup" transform="translate(0.500000, 0.000000)">
            <circle id="Oval-1" fill="#333333" sketch:type="MSShapeGroup" cx="14" cy="14.5" r="14.5"></circle>
            <path d="M18.5,4 L9.5,4 C8.67275,4 8,4.64071429 8,5.42857143 L8,22.5714286 C8,23.3592857 8.67275,24 9.5,24 L18.5,24 C19.32725,24 20,23.3592857 20,22.5714286 L20,5.42857143 C20,4.64071429 19.32725,4 18.5,4 L18.5,4 Z M8.75,7.57142857 L19.25,7.57142857 L19.25,20.4285714 L8.75,20.4285714 L8.75,7.57142857 L8.75,7.57142857 Z M9.5,4.71428571 L18.5,4.71428571 C18.914,4.71428571 19.25,5.03464286 19.25,5.42857143 L19.25,6.85714286 L8.75,6.85714286 L8.75,5.42857143 C8.75,5.03464286 9.086375,4.71428571 9.5,4.71428571 L9.5,4.71428571 Z M18.5,23.2857143 L9.5,23.2857143 C9.086375,23.2857143 8.75,22.9657143 8.75,22.5714286 L8.75,21.1428571 L19.25,21.1428571 L19.25,22.5714286 C19.25,22.9657143 18.914,23.2857143 18.5,23.2857143 L18.5,23.2857143 Z M15.875,6.14285714 L13.625,6.14285714 C13.418,6.14285714 13.25,5.98285714 13.25,5.78571429 C13.25,5.58857143 13.418,5.42857143 13.625,5.42857143 L15.875,5.42857143 C16.082,5.42857143 16.25,5.58857143 16.25,5.78571429 C16.25,5.98285714 16.082,6.14285714 15.875,6.14285714 L15.875,6.14285714 Z M12.125,6.14285714 C12.0275,6.14285714 11.93,6.10357143 11.85875,6.03928571 C11.79125,5.97142857 11.75,5.87857143 11.75,5.78571429 C11.75,5.69285714 11.79125,5.6 11.85875,5.53214286 C11.9975,5.4 12.2525,5.4 12.39125,5.53214286 C12.45875,5.6 12.5,5.69285714 12.5,5.78571429 C12.5,5.87857143 12.45875,5.97142857 12.39125,6.03928571 C12.32,6.10357143 12.2225,6.14285714 12.125,6.14285714 L12.125,6.14285714 Z M14.375,22.5714286 L13.625,22.5714286 C13.418,22.5714286 13.25,22.4114286 13.25,22.2142857 C13.25,22.0171429 13.418,21.8571429 13.625,21.8571429 L14.375,21.8571429 C14.582,21.8571429 14.75,22.0171429 14.75,22.2142857 C14.75,22.4114286 14.582,22.5714286 14.375,22.5714286 L14.375,22.5714286 Z" fill="#FFFFFF" sketch:type="MSShapeGroup"></path>
        </g>
    </g>
</svg>