<?xml version="1.0" encoding="UTF-8" standalone="no"?>
<svg width="29px" height="29px" viewBox="0 0 29 29" version="1.1" xmlns="http://www.w3.org/2000/svg" xmlns:xlink="http://www.w3.org/1999/xlink" xmlns:sketch="http://www.bohemiancoding.com/sketch/ns">
    <!-- Generator: Sketch 3.1.1 (8761) - http://www.bohemiancoding.com/sketch -->
    <title>light_bulb</title>
    <desc>Created with Sketch.</desc>
    <defs></defs>
    <g id="Page-1" stroke="none" stroke-width="1" fill="none" fill-rule="evenodd" sketch:type="MSPage">
        <g id="light_bulb" sketch:type="MSLayerGroup">
            <g id="Page-1" sketch:type="MSShapeGroup">
                <g id="light_bulb">
                    <circle id="Oval-1" fill="#2C3E50" cx="14.5" cy="14.5" r="14.5"></circle>
                    <path d="M12.1662778,24.5017921 C11.9796111,24.5017921 11.8147222,24.3645878 11.7832222,24.1725806 C11.7478333,23.9577061 11.8909444,23.7546595 12.1028889,23.7187814 L16.7695556,22.9302509 C16.9838333,22.89319 17.1821667,23.0398566 17.2167778,23.2543369 C17.2525556,23.4692115 17.1094444,23.6726523 16.8975,23.7077419 L12.2308333,24.4962724 C12.2090556,24.5002151 12.1872778,24.5017921 12.1662778,24.5017921 L12.1662778,24.5017921 L12.1662778,24.5017921 Z M12.1662778,22.9247312 C11.9796111,22.9247312 11.8147222,22.7875269 11.7832222,22.5955197 C11.7478333,22.3806452 11.8909444,22.1775986 12.1028889,22.1417204 L16.7695556,21.35319 C16.9838333,21.3169176 17.1821667,21.4627957 17.2167778,21.677276 C17.2525556,21.8921505 17.1094444,22.0955914 16.8975,22.130681 L12.2308333,22.9192115 C12.2090556,22.9231541 12.1872778,22.9247312 12.1662778,22.9247312 L12.1662778,22.9247312 L12.1662778,22.9247312 Z M12.9440556,26 C12.7624444,26 12.5998889,25.8702867 12.5633333,25.6830108 C12.5213333,25.469319 12.6578333,25.2619355 12.8682222,25.2185663 L15.9793333,24.5877419 C16.1905,24.544767 16.3946667,24.6835484 16.4366667,24.8968459 C16.4786667,25.1105376 16.3425556,25.3175269 16.1321667,25.3608961 L13.0210556,25.9917204 C12.995,25.9972401 12.9693333,26 12.9440556,26 L12.9440556,26 L12.9440556,26 Z M14.5,4 C10.6402778,4 7.5,7.18369176 7.5,11.0967742 C7.5,12.780681 8.08488889,14.411362 9.1695,15.7124373 C9.18777778,15.7309677 11.0066111,17.6005735 11.3352222,20.1424014 C11.3706111,20.5595341 11.6708333,21.3476703 12.5555556,21.3476703 L16.4444444,21.3476703 C17.2883333,21.3476703 17.6367778,20.6206452 17.6628333,20.1601434 C17.9933889,17.6096416 19.8122222,15.7309677 19.8518889,15.6883871 C20.9147222,14.4204301 21.5,12.7897491 21.5,11.0967742 C21.5,7.18369176 18.3597222,4 14.5,4 L14.5,4 L14.5,4 Z M12.9444444,14.2508961 L12.1666667,14.2508961 C11.7377222,14.2508961 11.3888889,13.8972401 11.3888889,13.4623656 C11.3888889,13.027491 11.7377222,12.6738351 12.1666667,12.6738351 C12.5956111,12.6738351 12.9444444,13.027491 12.9444444,13.4623656 L12.9444444,14.2508961 L12.9444444,14.2508961 Z M15.2777778,20.5591398 L13.7222222,20.5591398 L13.7222222,15.0394265 L15.2777778,15.0394265 L15.2777778,20.5591398 L15.2777778,20.5591398 Z M19.2806111,15.1549462 C19.1981667,15.2385305 17.2568333,17.2346953 16.8897222,20.0860215 C16.8842778,20.1648746 16.8415,20.5591398 16.4444444,20.5591398 L16.0555556,20.5591398 L16.0555556,15.0394265 L16.8333333,15.0394265 C17.6912222,15.0394265 18.3888889,14.3321147 18.3888889,13.4623656 C18.3888889,12.5926165 17.6912222,11.8853047 16.8333333,11.8853047 C15.9754444,11.8853047 15.2777778,12.5926165 15.2777778,13.4623656 L15.2777778,14.2508961 L13.7222222,14.2508961 L13.7222222,13.4623656 C13.7222222,12.5926165 13.0245556,11.8853047 12.1666667,11.8853047 C11.3087778,11.8853047 10.6111111,12.5926165 10.6111111,13.4623656 C10.6111111,14.3321147 11.3087778,15.0394265 12.1666667,15.0394265 L12.9444444,15.0394265 L12.9444444,20.5591398 L12.5555556,20.5591398 C12.1884444,20.5591398 12.1219444,20.1865591 12.1087222,20.0580287 C11.7439444,17.2350896 9.80222222,15.2381362 9.74194444,15.1789964 C8.79772222,14.0450896 8.27777778,12.5949821 8.27777778,11.0967742 C8.27777778,7.61856631 11.0692222,4.78853047 14.5,4.78853047 C17.9307778,4.78853047 20.7222222,7.61856631 20.7222222,11.0967742 C20.7222222,12.6028674 20.2026667,14.0525806 19.2806111,15.1549462 L19.2806111,15.1549462 L19.2806111,15.1549462 Z M16.0555556,14.2508961 L16.0555556,13.4623656 C16.0555556,13.027491 16.404,12.6738351 16.8333333,12.6738351 C17.2626667,12.6738351 17.6111111,13.027491 17.6111111,13.4623656 C17.6111111,13.8972401 17.2626667,14.2508961 16.8333333,14.2508961 L16.0555556,14.2508961 L16.0555556,14.2508961 Z" id="light_x5F_bulb" fill="#FFFFFF"></path>
                </g>
            </g>
        </g>
    </g>
</svg>