<?xml version="1.0" encoding="UTF-8" standalone="no"?>
<svg width="29px" height="29px" viewBox="0 0 29 29" version="1.1" xmlns="http://www.w3.org/2000/svg" xmlns:xlink="http://www.w3.org/1999/xlink" xmlns:sketch="http://www.bohemiancoding.com/sketch/ns">
    <!-- Generator: Sketch 3.1.1 (8761) - http://www.bohemiancoding.com/sketch -->
    <title>pencil</title>
    <desc>Created with Sketch.</desc>
    <defs></defs>
    <g id="Page-1" stroke="none" stroke-width="1" fill="none" fill-rule="evenodd" sketch:type="MSPage">
        <g id="pencil" sketch:type="MSLayerGroup">
            <circle id="Oval-1" fill="#F1C40F" sketch:type="MSShapeGroup" cx="14.5" cy="14.5" r="14.5"></circle>
            <path d="M19.2200274,8.39069417 L11.1852364,16.4261396 C11.0572741,16.5544292 11.0572741,16.760609 11.1852364,16.8888986 C11.249054,16.9523888 11.3328349,16.9847885 11.4166159,16.9847885 C11.5003969,16.9847885 11.5841778,16.9523888 11.6479954,16.8888986 L19.6831136,8.85345309 C19.8114032,8.72549076 19.8114032,8.5186565 19.6831136,8.39069417 C19.5551512,8.26273183 19.3479897,8.2630591 19.2200274,8.39069417 L19.2200274,8.39069417 Z M23.6159099,6.7713652 L22.2282877,5.38374296 C21.9811993,5.13665456 21.6526208,5.00018322 21.3034243,5.00018322 L21.3027698,5.00018322 C20.9532461,5.00018322 20.6246676,5.13665456 20.3772519,5.38374296 L19.2203546,6.540313 L8.79616984,16.9641705 C8.77097009,16.9893703 8.74969758,17.0191518 8.73431592,17.0512242 L6.03368887,22.5284048 C5.97183495,22.653749 5.99670742,22.8052747 6.09554278,22.9041101 C6.1583785,22.9666185 6.24215947,23 6.32692224,23 C6.37601265,23 6.4257576,22.9888728 6.47157532,22.965964 L11.9481014,20.2653369 C11.9801738,20.2499553 12.009628,20.2286828 12.0348278,20.203483 L12.5722041,19.6657794 C12.5731859,19.6651249 12.5738405,19.6644703 12.574495,19.6638158 L22.4593398,9.77929821 L23.6159099,8.6224009 C23.8633256,8.3753125 23.9994696,8.04673403 23.9994696,7.69688305 C23.9994696,7.34703206 23.8633256,7.01845359 23.6159099,6.7713652 L23.6159099,6.7713652 Z M10.4914253,19.7613421 L11.4915606,19.7613421 L8.25192083,21.358744 L7.64123614,20.7480593 L9.06616709,17.8579433 L10.1641559,17.8985247 L10.1641559,19.4340727 C10.1641559,19.6147254 10.3104453,19.7613421 10.4914253,19.7613421 L10.4914253,19.7613421 Z M7.33523925,21.3682348 L7.63141806,21.6644136 L7.04658765,21.9527379 L7.33523925,21.3682348 L7.33523925,21.3682348 Z M12.2063169,19.1068033 L10.8186947,19.1068033 L10.8186947,17.5833642 C10.8186947,17.4072933 10.6792779,17.2629675 10.5035343,17.2560948 L9.46870844,17.217477 L19.4514068,7.23445139 L21.7648742,9.54791875 L12.2063169,19.1068033 L12.2063169,19.1068033 Z M23.153151,8.15964197 L22.2279604,9.08515982 L19.914493,6.77169246 L20.8400109,5.84650188 C20.964046,5.72279405 21.1283352,5.65472202 21.3027698,5.65472202 C21.4775317,5.65472202 21.6418209,5.72279405 21.7652015,5.84650188 L23.153151,7.23445139 C23.2768588,7.35783195 23.3449308,7.52212119 23.3449308,7.69688305 C23.3449308,7.8716449 23.2768588,8.03593414 23.153151,8.15964197 L23.153151,8.15964197 Z" fill="#FFFFFF" sketch:type="MSShapeGroup"></path>
        </g>
    </g>
</svg>