<?xml version="1.0" encoding="UTF-8" standalone="no"?>
<svg width="33px" height="33px" viewBox="0 0 33 33" version="1.1" xmlns="http://www.w3.org/2000/svg" xmlns:xlink="http://www.w3.org/1999/xlink" xmlns:sketch="http://www.bohemiancoding.com/sketch/ns">
    <!-- Generator: Sketch 3.1.1 (8761) - http://www.bohemiancoding.com/sketch -->
    <title>ui-img</title>
    <desc>Created with Sketch.</desc>
    <defs></defs>
    <g id="Page-1" stroke="none" stroke-width="1" fill="none" fill-rule="evenodd" sketch:type="MSPage">
        <g id="ui-img" sketch:type="MSLayerGroup" transform="translate(2.000000, 2.000000)">
            <g id="Page-1" sketch:type="MSShapeGroup">
                <g id="ui-img">
                    <g id="Page-1">
                        <g id="picture_list_2">
                            <circle id="Oval-1" stroke="#333333" stroke-width="3" cx="14.5" cy="14.5" r="14.5"></circle>
                            <path d="M9.41071429,11.3333333 L5.33928571,11.3333333 C5.152,11.3333333 5,11.184 5,11 L5,8.33333333 C5,8.14933333 5.152,8 5.33928571,8 L9.41071429,8 C9.598,8 9.75,8.14933333 9.75,8.33333333 L9.75,11 C9.75,11.184 9.598,11.3333333 9.41071429,11.3333333 L9.41071429,11.3333333 L9.41071429,11.3333333 Z M5.67857143,10.6666667 L9.07142857,10.6666667 L9.07142857,8.66666667 L5.67857143,8.66666667 L5.67857143,10.6666667 L5.67857143,10.6666667 Z M23.6607143,16.6666667 L19.5892857,16.6666667 C19.402,16.6666667 19.25,16.5173333 19.25,16.3333333 L19.25,13.6666667 C19.25,13.4826667 19.402,13.3333333 19.5892857,13.3333333 L23.6607143,13.3333333 C23.8483393,13.3333333 24,13.4826667 24,13.6666667 L24,16.3333333 C24,16.5173333 23.8483393,16.6666667 23.6607143,16.6666667 L23.6607143,16.6666667 L23.6607143,16.6666667 Z M19.9285714,16 L23.3214286,16 L23.3214286,14 L19.9285714,14 L19.9285714,16 L19.9285714,16 Z M9.41071429,22 L5.33928571,22 C5.152,22 5,21.8506667 5,21.6666667 L5,19 C5,18.816 5.152,18.6666667 5.33928571,18.6666667 L9.41071429,18.6666667 C9.598,18.6666667 9.75,18.816 9.75,19 L9.75,21.6666667 C9.75,21.8506667 9.598,22 9.41071429,22 L9.41071429,22 L9.41071429,22 Z M5.67857143,21.3333333 L9.07142857,21.3333333 L9.07142857,19.3333333 L5.67857143,19.3333333 L5.67857143,21.3333333 L5.67857143,21.3333333 Z M23.6607143,8.66666667 L11.4464286,8.66666667 C11.2591429,8.66666667 11.1071429,8.51733333 11.1071429,8.33333333 C11.1071429,8.14933333 11.2591429,8 11.4464286,8 L23.6607143,8 C23.8483393,8 24,8.14933333 24,8.33333333 C24,8.51733333 23.8483393,8.66666667 23.6607143,8.66666667 L23.6607143,8.66666667 L23.6607143,8.66666667 Z M23.6607143,10 L11.4464286,10 C11.2591429,10 11.1071429,9.85066667 11.1071429,9.66666667 C11.1071429,9.48266667 11.2591429,9.33333333 11.4464286,9.33333333 L23.6607143,9.33333333 C23.8483393,9.33333333 24,9.48266667 24,9.66666667 C24,9.85066667 23.8483393,10 23.6607143,10 L23.6607143,10 L23.6607143,10 Z M20.2678571,11.3333333 L11.4464286,11.3333333 C11.2591429,11.3333333 11.1071429,11.184 11.1071429,11 C11.1071429,10.816 11.2591429,10.6666667 11.4464286,10.6666667 L20.2678571,10.6666667 C20.4551429,10.6666667 20.6071429,10.816 20.6071429,11 C20.6071429,11.184 20.4551429,11.3333333 20.2678571,11.3333333 L20.2678571,11.3333333 L20.2678571,11.3333333 Z M17.5535714,14 L5.33928571,14 C5.152,14 5,13.8506667 5,13.6666667 C5,13.4826667 5.152,13.3333333 5.33928571,13.3333333 L17.5535714,13.3333333 C17.7408571,13.3333333 17.8928571,13.4826667 17.8928571,13.6666667 C17.8928571,13.8506667 17.7408571,14 17.5535714,14 L17.5535714,14 L17.5535714,14 Z M17.5535714,15.3333333 L5.33928571,15.3333333 C5.152,15.3333333 5,15.184 5,15 C5,14.816 5.152,14.6666667 5.33928571,14.6666667 L17.5535714,14.6666667 C17.7408571,14.6666667 17.8928571,14.816 17.8928571,15 C17.8928571,15.184 17.7408571,15.3333333 17.5535714,15.3333333 L17.5535714,15.3333333 L17.5535714,15.3333333 Z M14.1607143,16.6666667 L5.33928571,16.6666667 C5.152,16.6666667 5,16.5173333 5,16.3333333 C5,16.1493333 5.152,16 5.33928571,16 L14.1607143,16 C14.348,16 14.5,16.1493333 14.5,16.3333333 C14.5,16.5173333 14.348,16.6666667 14.1607143,16.6666667 L14.1607143,16.6666667 L14.1607143,16.6666667 Z M23.6607143,19.3333333 L11.4464286,19.3333333 C11.2591429,19.3333333 11.1071429,19.184 11.1071429,19 C11.1071429,18.816 11.2591429,18.6666667 11.4464286,18.6666667 L23.6607143,18.6666667 C23.8483393,18.6666667 24,18.816 24,19 C24,19.184 23.8483393,19.3333333 23.6607143,19.3333333 L23.6607143,19.3333333 L23.6607143,19.3333333 Z M23.6607143,20.6666667 L11.4464286,20.6666667 C11.2591429,20.6666667 11.1071429,20.5173333 11.1071429,20.3333333 C11.1071429,20.1493333 11.2591429,20 11.4464286,20 L23.6607143,20 C23.8483393,20 24,20.1493333 24,20.3333333 C24,20.5173333 23.8483393,20.6666667 23.6607143,20.6666667 L23.6607143,20.6666667 L23.6607143,20.6666667 Z M20.2678571,22 L11.4464286,22 C11.2591429,22 11.1071429,21.8506667 11.1071429,21.6666667 C11.1071429,21.4826667 11.2591429,21.3333333 11.4464286,21.3333333 L20.2678571,21.3333333 C20.4551429,21.3333333 20.6071429,21.4826667 20.6071429,21.6666667 C20.6071429,21.8506667 20.4551429,22 20.2678571,22 L20.2678571,22 L20.2678571,22 Z" id="picture_x5F_list_x5F_2" fill="#333333"></path>
                        </g>
                    </g>
                </g>
            </g>
        </g>
    </g>
</svg>