<?xml version="1.0" encoding="UTF-8" standalone="no"?>
<svg width="33px" height="33px" viewBox="0 0 33 33" version="1.1" xmlns="http://www.w3.org/2000/svg" xmlns:xlink="http://www.w3.org/1999/xlink" xmlns:sketch="http://www.bohemiancoding.com/sketch/ns">
    <!-- Generator: Sketch 3.1.1 (8761) - http://www.bohemiancoding.com/sketch -->
    <title>ux</title>
    <desc>Created with Sketch.</desc>
    <defs></defs>
    <g id="Page-1" stroke="none" stroke-width="1" fill="none" fill-rule="evenodd" sketch:type="MSPage">
        <g id="ux" sketch:type="MSLayerGroup" transform="translate(2.000000, 2.000000)" stroke="#333333">
            <g id="Page-1" sketch:type="MSShapeGroup">
                <g id="happy_face">
                    <circle id="Oval-1" stroke-width="3" cx="14.5" cy="14.5" r="14.5"></circle>
                    <path d="M14.5,23 C9.81303704,23 6,19.1872778 6,14.5 C6,9.81303704 9.81303704,6 14.5,6 C19.1872778,6 23,9.81303704 23,14.5 C23,19.1872778 19.1872778,23 14.5,23 L14.5,23 L14.5,23 Z M14.5,6.62962963 C10.1602778,6.62962963 6.62962963,10.1602778 6.62962963,14.5 C6.62962963,18.8397222 10.1602778,22.3703704 14.5,22.3703704 C18.8397222,22.3703704 22.3703704,18.8397222 22.3703704,14.5 C22.3703704,10.1602778 18.8397222,6.62962963 14.5,6.62962963 L14.5,6.62962963 L14.5,6.62962963 Z M11.6666667,13.5555556 C10.9721852,13.5555556 10.4074074,12.9907778 10.4074074,12.2962963 C10.4074074,11.6018148 10.9721852,11.037037 11.6666667,11.037037 C12.3611481,11.037037 12.9259259,11.6018148 12.9259259,12.2962963 C12.9259259,12.9907778 12.3611481,13.5555556 11.6666667,13.5555556 L11.6666667,13.5555556 L11.6666667,13.5555556 Z M11.6666667,11.6666667 C11.3194259,11.6666667 11.037037,11.9490556 11.037037,12.2962963 C11.037037,12.643537 11.3194259,12.9259259 11.6666667,12.9259259 C12.0139074,12.9259259 12.2962963,12.643537 12.2962963,12.2962963 C12.2962963,11.9490556 12.0139074,11.6666667 11.6666667,11.6666667 L11.6666667,11.6666667 L11.6666667,11.6666667 Z M17.3333333,13.5555556 C16.6388519,13.5555556 16.0740741,12.9907778 16.0740741,12.2962963 C16.0740741,11.6018148 16.6388519,11.037037 17.3333333,11.037037 C18.0278148,11.037037 18.5925926,11.6018148 18.5925926,12.2962963 C18.5925926,12.9907778 18.0278148,13.5555556 17.3333333,13.5555556 L17.3333333,13.5555556 L17.3333333,13.5555556 Z M17.3333333,11.6666667 C16.9857778,11.6666667 16.7037037,11.9490556 16.7037037,12.2962963 C16.7037037,12.643537 16.9857778,12.9259259 17.3333333,12.9259259 C17.6808889,12.9259259 17.962963,12.643537 17.962963,12.2962963 C17.962963,11.9490556 17.6808889,11.6666667 17.3333333,11.6666667 L17.3333333,11.6666667 L17.3333333,11.6666667 Z M14.5,20.4814815 C11.2016852,20.4814815 8.51851852,17.7983148 8.51851852,14.5 C8.51851852,14.3262222 8.65955556,14.1851852 8.83333333,14.1851852 C9.00711111,14.1851852 9.14814815,14.3262222 9.14814815,14.5 C9.14814815,17.4510741 11.5489259,19.8518519 14.5,19.8518519 C17.4510741,19.8518519 19.8518519,17.4510741 19.8518519,14.5 C19.8518519,14.3262222 19.9928889,14.1851852 20.1666667,14.1851852 C20.3404444,14.1851852 20.4814815,14.3262222 20.4814815,14.5 C20.4814815,17.7983148 17.7983148,20.4814815 14.5,20.4814815 L14.5,20.4814815 L14.5,20.4814815 Z" id="happy_x5F_face" fill="#333333"></path>
                </g>
            </g>
        </g>
    </g>
</svg>